<?xml version="1.0" encoding="utf-8"?>
<!-- Generator: Adobe Illustrator 16.0.0, SVG Export Plug-In . SVG Version: 6.00 Build 0)  -->
<!DOCTYPE svg PUBLIC "-//W3C//DTD SVG 1.1//EN" "http://www.w3.org/Graphics/SVG/1.1/DTD/svg11.dtd">
<svg version="1.1" id="Layer_1" xmlns="http://www.w3.org/2000/svg" xmlns:xlink="http://www.w3.org/1999/xlink" x="0px" y="0px"
	 width="1059.106px" height="168.017px" viewBox="0 0 1059.106 168.017" enable-background="new 0 0 1059.106 168.017"
	 xml:space="preserve">
<path fill-rule="evenodd" clip-rule="evenodd" fill="#333333" d="M31.129,152.436C55.387,96.426,92.775,56.875,156.15,48.394
	c35.859-4.8,71.038-0.55,105.16,9.985c35.438,10.939,70.267,23.896,105.178,36.479c28.764,10.367,57.927,18.902,88.403,22.254
	c27.403,3.014,54.885,3.014,82.38,1.482c47.777-2.662,95.264-8.131,142.549-15.314c55.52-8.436,110.561-19.43,164.811-33.889
	c39.881-10.629,79.307-22.952,118.986-34.342c21.916-6.291,43.936-12.22,65.914-18.29c0.711-0.196,1.488-0.146,2.713,0.775
	c-5.15,3.23-10.145,6.746-15.477,9.644C993.357,39.903,968,47.64,942.755,55.615c-49.699,15.705-99.768,30.063-150.477,42.221
	c-55.424,13.287-111.275,24.258-167.688,32.277c-41.572,5.91-83.279,10.58-125.292,12.213
	c-54.384,2.111-106.63-7.477-157.659-26.148c-32.17-11.77-64.775-22.602-97.744-31.867c-30.385-8.541-61.67-10.93-92.979-3.813
	c-25.168,5.721-47.02,18.492-67.756,33.184C65.646,126.092,48.697,139.305,31.129,152.436z"/>
</svg>
